<svg xmlns="http://www.w3.org/2000/svg" xmlns:xlink="http://www.w3.org/1999/xlink" width="482" zoomAndPan="magnify" viewBox="0 0 361.5 99.749996" height="133" preserveAspectRatio="xMidYMid meet" version="1.0"><defs><filter x="0%" y="0%" width="100%" height="100%" id="41589e3451"><feColorMatrix values="0 0 0 0 1 0 0 0 0 1 0 0 0 0 1 0 0 0 1 0" color-interpolation-filters="sRGB"/></filter><g/><clipPath id="47c15f7d58"><path d="M 0.203125 2 L 132.621094 2 L 132.621094 99 L 0.203125 99 Z M 0.203125 2 " clip-rule="nonzero"/></clipPath><clipPath id="f84c7933e7"><path d="M 30 0 L 360.796875 0 L 360.796875 99.5 L 30 99.5 Z M 30 0 " clip-rule="nonzero"/></clipPath><clipPath id="b2c5b1e84a"><path d="M 1.652344 0 L 330.796875 0 L 330.796875 99.5 L 1.652344 99.5 Z M 1.652344 0 " clip-rule="nonzero"/></clipPath><clipPath id="2742f55ceb"><path d="M 0.652344 0 L 329.796875 0 L 329.796875 99.5 L 0.652344 99.5 Z M 0.652344 0 " clip-rule="nonzero"/></clipPath><clipPath id="910610f6fb"><path d="M 0.652344 0 L 329.796875 0 L 329.796875 99.5 L 0.652344 99.5 Z M 0.652344 0 " clip-rule="nonzero"/></clipPath><radialGradient gradientTransform="matrix(1.000083, 0, 0, 0.999917, 106.233557, 12.787412)" gradientUnits="userSpaceOnUse" r="219.829494" cx="0" id="756c68fdd0" cy="2.569913" fx="0" fy="2.569913"><stop stop-opacity="1" stop-color="rgb(79.415894%, 42.269897%, 90.275574%)" offset="0"/><stop stop-opacity="1" stop-color="rgb(79.078674%, 42.129517%, 90.409851%)" offset="0.015625"/><stop stop-opacity="1" stop-color="rgb(78.788757%, 42.010498%, 90.524292%)" offset="0.0273438"/><stop stop-opacity="1" stop-color="rgb(78.49884%, 41.891479%, 90.638733%)" offset="0.0390625"/><stop stop-opacity="1" stop-color="rgb(78.208923%, 41.772461%, 90.753174%)" offset="0.0507812"/><stop stop-opacity="1" stop-color="rgb(77.920532%, 41.651917%, 90.869141%)" offset="0.0625"/><stop stop-opacity="1" stop-color="rgb(77.630615%, 41.532898%, 90.983582%)" offset="0.0742188"/><stop stop-opacity="1" stop-color="rgb(77.340698%, 41.413879%, 91.098022%)" offset="0.0859375"/><stop stop-opacity="1" stop-color="rgb(77.050781%, 41.294861%, 91.212463%)" offset="0.0976562"/><stop stop-opacity="1" stop-color="rgb(76.760864%, 41.174316%, 91.32843%)" offset="0.109375"/><stop stop-opacity="1" stop-color="rgb(76.472473%, 41.055298%, 91.442871%)" offset="0.121094"/><stop stop-opacity="1" stop-color="rgb(76.182556%, 40.936279%, 91.557312%)" offset="0.132812"/><stop stop-opacity="1" stop-color="rgb(75.892639%, 40.817261%, 91.671753%)" offset="0.144531"/><stop stop-opacity="1" stop-color="rgb(75.602722%, 40.696716%, 91.78772%)" offset="0.15625"/><stop stop-opacity="1" stop-color="rgb(75.314331%, 40.577698%, 91.902161%)" offset="0.167969"/><stop stop-opacity="1" stop-color="rgb(75.024414%, 40.458679%, 92.016602%)" offset="0.179688"/><stop stop-opacity="1" stop-color="rgb(74.734497%, 40.339661%, 92.132568%)" offset="0.191406"/><stop stop-opacity="1" stop-color="rgb(74.44458%, 40.219116%, 92.247009%)" offset="0.203125"/><stop stop-opacity="1" stop-color="rgb(74.156189%, 40.100098%, 92.36145%)" offset="0.214844"/><stop stop-opacity="1" stop-color="rgb(73.866272%, 39.981079%, 92.475891%)" offset="0.226562"/><stop stop-opacity="1" stop-color="rgb(73.576355%, 39.860535%, 92.591858%)" offset="0.238281"/><stop stop-opacity="1" stop-color="rgb(73.286438%, 39.741516%, 92.706299%)" offset="0.25"/><stop stop-opacity="1" stop-color="rgb(73.045349%, 39.642334%, 92.802429%)" offset="0.261719"/><stop stop-opacity="1" stop-color="rgb(72.851562%, 39.562988%, 92.878723%)" offset="0.269531"/><stop stop-opacity="1" stop-color="rgb(72.659302%, 39.483643%, 92.955017%)" offset="0.277344"/><stop stop-opacity="1" stop-color="rgb(72.465515%, 39.404297%, 93.031311%)" offset="0.285156"/><stop stop-opacity="1" stop-color="rgb(72.273254%, 39.323425%, 93.109131%)" offset="0.292969"/><stop stop-opacity="1" stop-color="rgb(72.079468%, 39.24408%, 93.185425%)" offset="0.300781"/><stop stop-opacity="1" stop-color="rgb(71.887207%, 39.164734%, 93.261719%)" offset="0.308594"/><stop stop-opacity="1" stop-color="rgb(71.69342%, 39.085388%, 93.338013%)" offset="0.316406"/><stop stop-opacity="1" stop-color="rgb(71.50116%, 39.006042%, 93.414307%)" offset="0.324219"/><stop stop-opacity="1" stop-color="rgb(71.307373%, 38.925171%, 93.490601%)" offset="0.332031"/><stop stop-opacity="1" stop-color="rgb(71.115112%, 38.845825%, 93.56842%)" offset="0.339844"/><stop stop-opacity="1" stop-color="rgb(70.921326%, 38.766479%, 93.644714%)" offset="0.347656"/><stop stop-opacity="1" stop-color="rgb(70.729065%, 38.687134%, 93.721008%)" offset="0.355469"/><stop stop-opacity="1" stop-color="rgb(70.535278%, 38.607788%, 93.797302%)" offset="0.363281"/><stop stop-opacity="1" stop-color="rgb(70.343018%, 38.528442%, 93.873596%)" offset="0.371094"/><stop stop-opacity="1" stop-color="rgb(70.053101%, 38.407898%, 93.989563%)" offset="0.378906"/><stop stop-opacity="1" stop-color="rgb(69.667053%, 38.249207%, 94.142151%)" offset="0.394531"/><stop stop-opacity="1" stop-color="rgb(69.281006%, 38.090515%, 94.294739%)" offset="0.410156"/><stop stop-opacity="1" stop-color="rgb(68.894958%, 37.930298%, 94.448853%)" offset="0.425781"/><stop stop-opacity="1" stop-color="rgb(68.508911%, 37.771606%, 94.60144%)" offset="0.441406"/><stop stop-opacity="1" stop-color="rgb(68.122864%, 37.612915%, 94.754028%)" offset="0.457031"/><stop stop-opacity="1" stop-color="rgb(67.736816%, 37.452698%, 94.908142%)" offset="0.472656"/><stop stop-opacity="1" stop-color="rgb(67.350769%, 37.294006%, 95.06073%)" offset="0.488281"/><stop stop-opacity="1" stop-color="rgb(67.012024%, 37.155151%, 95.195007%)" offset="0.503906"/><stop stop-opacity="1" stop-color="rgb(66.723633%, 37.034607%, 95.309448%)" offset="0.515625"/><stop stop-opacity="1" stop-color="rgb(66.433716%, 36.915588%, 95.423889%)" offset="0.527344"/><stop stop-opacity="1" stop-color="rgb(66.143799%, 36.79657%, 95.53833%)" offset="0.539062"/><stop stop-opacity="1" stop-color="rgb(65.853882%, 36.677551%, 95.654297%)" offset="0.550781"/><stop stop-opacity="1" stop-color="rgb(65.565491%, 36.557007%, 95.768738%)" offset="0.5625"/><stop stop-opacity="1" stop-color="rgb(65.275574%, 36.437988%, 95.883179%)" offset="0.574219"/><stop stop-opacity="1" stop-color="rgb(64.985657%, 36.31897%, 95.99762%)" offset="0.585938"/><stop stop-opacity="1" stop-color="rgb(64.69574%, 36.199951%, 96.113586%)" offset="0.597656"/><stop stop-opacity="1" stop-color="rgb(64.407349%, 36.079407%, 96.228027%)" offset="0.609375"/><stop stop-opacity="1" stop-color="rgb(64.117432%, 35.960388%, 96.342468%)" offset="0.621094"/><stop stop-opacity="1" stop-color="rgb(63.874817%, 35.861206%, 96.438599%)" offset="0.632812"/><stop stop-opacity="1" stop-color="rgb(63.682556%, 35.78186%, 96.514893%)" offset="0.640625"/><stop stop-opacity="1" stop-color="rgb(63.48877%, 35.700989%, 96.592712%)" offset="0.648438"/><stop stop-opacity="1" stop-color="rgb(63.296509%, 35.621643%, 96.669006%)" offset="0.65625"/><stop stop-opacity="1" stop-color="rgb(63.102722%, 35.542297%, 96.7453%)" offset="0.664062"/><stop stop-opacity="1" stop-color="rgb(62.910461%, 35.462952%, 96.821594%)" offset="0.671875"/><stop stop-opacity="1" stop-color="rgb(62.716675%, 35.383606%, 96.897888%)" offset="0.679688"/><stop stop-opacity="1" stop-color="rgb(62.524414%, 35.30426%, 96.974182%)" offset="0.6875"/><stop stop-opacity="1" stop-color="rgb(62.234497%, 35.183716%, 97.090149%)" offset="0.695312"/><stop stop-opacity="1" stop-color="rgb(61.84845%, 35.025024%, 97.242737%)" offset="0.710938"/><stop stop-opacity="1" stop-color="rgb(61.462402%, 34.866333%, 97.395325%)" offset="0.726562"/><stop stop-opacity="1" stop-color="rgb(61.076355%, 34.706116%, 97.549438%)" offset="0.742188"/><stop stop-opacity="1" stop-color="rgb(60.739136%, 34.567261%, 97.68219%)" offset="0.757812"/><stop stop-opacity="1" stop-color="rgb(60.449219%, 34.448242%, 97.798157%)" offset="0.769531"/><stop stop-opacity="1" stop-color="rgb(60.159302%, 34.327698%, 97.912598%)" offset="0.78125"/><stop stop-opacity="1" stop-color="rgb(59.869385%, 34.208679%, 98.027039%)" offset="0.792969"/><stop stop-opacity="1" stop-color="rgb(59.580994%, 34.089661%, 98.141479%)" offset="0.804688"/><stop stop-opacity="1" stop-color="rgb(59.338379%, 33.990479%, 98.23761%)" offset="0.816406"/><stop stop-opacity="1" stop-color="rgb(59.146118%, 33.911133%, 98.31543%)" offset="0.824219"/><stop stop-opacity="1" stop-color="rgb(58.952332%, 33.830261%, 98.391724%)" offset="0.832031"/><stop stop-opacity="1" stop-color="rgb(58.760071%, 33.750916%, 98.468018%)" offset="0.839844"/><stop stop-opacity="1" stop-color="rgb(58.470154%, 33.631897%, 98.582458%)" offset="0.847656"/><stop stop-opacity="1" stop-color="rgb(58.084106%, 33.473206%, 98.735046%)" offset="0.863281"/><stop stop-opacity="1" stop-color="rgb(57.746887%, 33.332825%, 98.869324%)" offset="0.878906"/><stop stop-opacity="1" stop-color="rgb(57.45697%, 33.213806%, 98.983765%)" offset="0.890625"/><stop stop-opacity="1" stop-color="rgb(57.167053%, 33.094788%, 99.099731%)" offset="0.902344"/><stop stop-opacity="1" stop-color="rgb(56.925964%, 32.995605%, 99.195862%)" offset="0.914062"/><stop stop-opacity="1" stop-color="rgb(56.732178%, 32.914734%, 99.272156%)" offset="0.921875"/><stop stop-opacity="1" stop-color="rgb(56.442261%, 32.795715%, 99.386597%)" offset="0.929688"/><stop stop-opacity="1" stop-color="rgb(56.105042%, 32.65686%, 99.520874%)" offset="0.945312"/><stop stop-opacity="1" stop-color="rgb(55.863953%, 32.557678%, 99.617004%)" offset="0.957031"/><stop stop-opacity="1" stop-color="rgb(55.574036%, 32.437134%, 99.731445%)" offset="0.964844"/><stop stop-opacity="1" stop-color="rgb(55.285645%, 32.318115%, 99.845886%)" offset="0.980469"/><stop stop-opacity="1" stop-color="rgb(55.044556%, 32.218933%, 99.942017%)" offset="0.988281"/><stop stop-opacity="1" stop-color="rgb(54.899597%, 32.159424%, 100%)" offset="1"/></radialGradient><clipPath id="6404529b89"><rect x="0" width="330" y="0" height="100"/></clipPath><clipPath id="dbeb9f10da"><path d="M 0.652344 0 L 329.796875 0 L 329.796875 99.5 L 0.652344 99.5 Z M 0.652344 0 " clip-rule="nonzero"/></clipPath><clipPath id="313745fc83"><rect x="0" width="330" y="0" height="100"/></clipPath><clipPath id="811c6e289f"><rect x="0" width="330" y="0" height="100"/></clipPath><mask id="ffb1c8e15f"><g filter="url(#41589e3451)"><g transform="matrix(1, 0, 0, 1, -0.000000000000003553, -0.000000000000003885)"><g clip-path="url(#811c6e289f)"><g clip-path="url(#dbeb9f10da)"><g transform="matrix(1, 0, 0, 1, -0.000000000000003553, -0.000000000000003885)"><g clip-path="url(#313745fc83)"><g fill="#000000" fill-opacity="1"><g transform="translate(106.164208, 66.777402)"><g><path d="M 33.28125 -30.296875 C 33.28125 -28.234375 33.140625 -26.191406 32.859375 -24.171875 C 32.585938 -22.160156 32.265625 -20.175781 31.890625 -18.21875 C 31.785156 -17.695312 31.628906 -16.859375 31.421875 -15.703125 C 31.222656 -14.554688 30.972656 -13.273438 30.671875 -11.859375 C 30.378906 -10.453125 30.023438 -8.992188 29.609375 -7.484375 C 29.203125 -5.972656 28.75 -4.597656 28.25 -3.359375 C 27.75 -2.117188 27.195312 -1.09375 26.59375 -0.28125 C 26 0.519531 25.359375 0.921875 24.671875 0.921875 C 23.984375 0.921875 23.316406 0.578125 22.671875 -0.109375 C 22.035156 -0.796875 21.453125 -1.660156 20.921875 -2.703125 C 20.390625 -3.753906 19.898438 -4.929688 19.453125 -6.234375 C 19.003906 -7.546875 18.613281 -8.8125 18.28125 -10.03125 C 17.957031 -11.257812 17.6875 -12.378906 17.46875 -13.390625 C 17.25 -14.398438 17.085938 -15.164062 16.984375 -15.6875 C 16.835938 -15.238281 16.617188 -14.523438 16.328125 -13.546875 C 16.035156 -12.566406 15.664062 -11.460938 15.21875 -10.234375 C 14.769531 -9.015625 14.269531 -7.769531 13.71875 -6.5 C 13.175781 -5.226562 12.601562 -4.054688 12 -2.984375 C 11.394531 -1.921875 10.765625 -1.046875 10.109375 -0.359375 C 9.460938 0.328125 8.8125 0.671875 8.15625 0.671875 C 7.289062 0.671875 6.53125 0.296875 5.875 -0.453125 C 5.226562 -1.210938 4.679688 -2.1875 4.234375 -3.375 C 3.785156 -4.5625 3.40625 -5.882812 3.09375 -7.34375 C 2.78125 -8.8125 2.535156 -10.257812 2.359375 -11.6875 C 2.191406 -13.113281 2.054688 -14.445312 1.953125 -15.6875 C 1.859375 -16.925781 1.789062 -17.90625 1.75 -18.625 C 1.644531 -20.28125 1.550781 -21.898438 1.46875 -23.484375 C 1.382812 -25.066406 1.34375 -26.679688 1.34375 -28.328125 C 1.34375 -28.910156 1.359375 -29.707031 1.390625 -30.71875 C 1.421875 -31.738281 1.546875 -32.738281 1.765625 -33.71875 C 1.992188 -34.695312 2.34375 -35.554688 2.8125 -36.296875 C 3.28125 -37.035156 3.957031 -37.441406 4.84375 -37.515625 C 5.601562 -37.546875 6.257812 -37.234375 6.8125 -36.578125 C 7.363281 -35.929688 7.828125 -35.066406 8.203125 -33.984375 C 8.578125 -32.898438 8.875 -31.695312 9.09375 -30.375 C 9.320312 -29.050781 9.5 -27.769531 9.625 -26.53125 C 9.75 -25.289062 9.828125 -24.15625 9.859375 -23.125 C 9.890625 -22.09375 9.890625 -21.332031 9.859375 -20.84375 L 9.8125 -19.5 C 9.90625 -19.945312 10.082031 -20.648438 10.34375 -21.609375 C 10.601562 -22.578125 10.921875 -23.671875 11.296875 -24.890625 C 11.679688 -26.117188 12.085938 -27.378906 12.515625 -28.671875 C 12.941406 -29.960938 13.394531 -31.140625 13.875 -32.203125 C 14.363281 -33.265625 14.847656 -34.148438 15.328125 -34.859375 C 15.804688 -35.566406 16.269531 -35.9375 16.71875 -35.96875 C 17.300781 -36 17.859375 -35.65625 18.390625 -34.9375 C 18.929688 -34.21875 19.414062 -33.28125 19.84375 -32.125 C 20.269531 -30.96875 20.65625 -29.679688 21 -28.265625 C 21.34375 -26.859375 21.644531 -25.492188 21.90625 -24.171875 C 22.164062 -22.847656 22.363281 -21.648438 22.5 -20.578125 C 22.632812 -19.515625 22.738281 -18.757812 22.8125 -18.3125 C 22.84375 -18.863281 22.925781 -19.734375 23.0625 -20.921875 C 23.207031 -22.109375 23.398438 -23.429688 23.640625 -24.890625 C 23.878906 -26.359375 24.175781 -27.859375 24.53125 -29.390625 C 24.894531 -30.921875 25.316406 -32.320312 25.796875 -33.59375 C 26.285156 -34.863281 26.835938 -35.90625 27.453125 -36.71875 C 28.078125 -37.53125 28.765625 -37.9375 29.515625 -37.9375 C 30.378906 -37.9375 31.066406 -37.648438 31.578125 -37.078125 C 32.097656 -36.515625 32.476562 -35.828125 32.71875 -35.015625 C 32.957031 -34.203125 33.109375 -33.359375 33.171875 -32.484375 C 33.242188 -31.609375 33.28125 -30.878906 33.28125 -30.296875 Z M 33.28125 -30.296875 "/></g></g></g><g fill="#000000" fill-opacity="1"><g transform="translate(139.969816, 66.777402)"><g><path d="M 24.984375 -13.359375 C 24.984375 -12.773438 24.972656 -11.90625 24.953125 -10.75 C 24.929688 -9.601562 24.878906 -8.398438 24.796875 -7.140625 C 24.710938 -5.890625 24.597656 -4.703125 24.453125 -3.578125 C 24.316406 -2.460938 24.144531 -1.648438 23.9375 -1.140625 C 23.664062 -0.484375 23.304688 0.0820312 22.859375 0.5625 C 22.410156 1.050781 21.8125 1.296875 21.0625 1.296875 C 19.882812 1.296875 19.035156 0.832031 18.515625 -0.09375 C 18.003906 -1.03125 17.660156 -2.1875 17.484375 -3.5625 C 17.316406 -4.9375 17.25 -6.429688 17.28125 -8.046875 C 17.320312 -9.660156 17.304688 -11.15625 17.234375 -12.53125 C 17.171875 -13.914062 16.984375 -15.070312 16.671875 -16 C 16.359375 -16.925781 15.789062 -17.390625 14.96875 -17.390625 C 13.832031 -17.390625 12.960938 -17.207031 12.359375 -16.84375 C 11.753906 -16.488281 11.320312 -16.015625 11.0625 -15.421875 C 10.8125 -14.835938 10.660156 -14.164062 10.609375 -13.40625 C 10.554688 -12.65625 10.492188 -11.867188 10.421875 -11.046875 C 10.359375 -10.253906 10.304688 -9.1875 10.265625 -7.84375 C 10.234375 -6.5 10.078125 -5.171875 9.796875 -3.859375 C 9.523438 -2.554688 9.070312 -1.429688 8.4375 -0.484375 C 7.800781 0.453125 6.863281 0.921875 5.625 0.921875 C 4.863281 0.921875 4.25 0.628906 3.78125 0.046875 C 3.320312 -0.535156 2.953125 -1.289062 2.671875 -2.21875 C 2.398438 -3.144531 2.203125 -4.175781 2.078125 -5.3125 C 1.960938 -6.445312 1.894531 -7.554688 1.875 -8.640625 C 1.863281 -9.722656 1.863281 -10.710938 1.875 -11.609375 C 1.894531 -12.503906 1.90625 -13.175781 1.90625 -13.625 C 1.90625 -14.3125 1.929688 -15.445312 1.984375 -17.03125 C 2.035156 -18.613281 2.144531 -20.375 2.3125 -22.3125 C 2.488281 -24.257812 2.710938 -26.265625 2.984375 -28.328125 C 3.265625 -30.390625 3.628906 -32.269531 4.078125 -33.96875 C 4.523438 -35.675781 5.066406 -37.0625 5.703125 -38.125 C 6.335938 -39.195312 7.085938 -39.71875 7.953125 -39.6875 C 8.492188 -39.65625 8.960938 -39.414062 9.359375 -38.96875 C 9.753906 -38.519531 10.082031 -37.941406 10.34375 -37.234375 C 10.601562 -36.523438 10.816406 -35.757812 10.984375 -34.9375 C 11.160156 -34.113281 11.289062 -33.296875 11.375 -32.484375 C 11.46875 -31.671875 11.519531 -30.921875 11.53125 -30.234375 C 11.550781 -29.546875 11.5625 -29.015625 11.5625 -28.640625 C 11.5625 -27.742188 11.539062 -26.847656 11.5 -25.953125 C 11.46875 -25.054688 11.421875 -24.164062 11.359375 -23.28125 C 12.148438 -24.34375 13.207031 -25.21875 14.53125 -25.90625 C 15.851562 -26.59375 17.1875 -26.9375 18.53125 -26.9375 C 20.25 -26.9375 21.546875 -26.460938 22.421875 -25.515625 C 23.296875 -24.566406 23.921875 -23.394531 24.296875 -22 C 24.679688 -20.613281 24.890625 -19.132812 24.921875 -17.5625 C 24.960938 -16 24.984375 -14.597656 24.984375 -13.359375 Z M 24.984375 -13.359375 "/></g></g></g><g fill="#000000" fill-opacity="1"><g transform="translate(167.065915, 66.777402)"><g><path d="M 10.0625 -36.015625 C 10.0625 -35.535156 9.929688 -35.101562 9.671875 -34.71875 C 9.410156 -34.34375 9.070312 -34.007812 8.65625 -33.71875 C 8.25 -33.425781 7.804688 -33.203125 7.328125 -33.046875 C 6.847656 -32.898438 6.398438 -32.828125 5.984375 -32.828125 C 5.296875 -32.828125 4.691406 -33 4.171875 -33.34375 C 3.660156 -33.6875 3.40625 -34.21875 3.40625 -34.9375 C 3.40625 -35.445312 3.535156 -35.898438 3.796875 -36.296875 C 4.054688 -36.691406 4.375 -37.019531 4.75 -37.28125 C 5.125 -37.539062 5.550781 -37.738281 6.03125 -37.875 C 6.519531 -38.007812 6.988281 -38.078125 7.4375 -38.078125 C 8.082031 -38.078125 8.679688 -37.921875 9.234375 -37.609375 C 9.785156 -37.304688 10.0625 -36.773438 10.0625 -36.015625 Z M 10.46875 -18.46875 C 10.46875 -17.988281 10.46875 -17.484375 10.46875 -16.953125 C 10.46875 -16.421875 10.453125 -15.914062 10.421875 -15.4375 C 10.390625 -14.84375 10.375 -14.054688 10.375 -13.078125 C 10.375 -12.097656 10.335938 -11.039062 10.265625 -9.90625 C 10.203125 -8.769531 10.09375 -7.617188 9.9375 -6.453125 C 9.78125 -5.285156 9.53125 -4.21875 9.1875 -3.25 C 8.84375 -2.289062 8.382812 -1.507812 7.8125 -0.90625 C 7.25 -0.300781 6.535156 0.015625 5.671875 0.046875 C 5.023438 0.0859375 4.476562 -0.164062 4.03125 -0.71875 C 3.582031 -1.269531 3.210938 -1.984375 2.921875 -2.859375 C 2.628906 -3.742188 2.410156 -4.726562 2.265625 -5.8125 C 2.128906 -6.894531 2.023438 -7.941406 1.953125 -8.953125 C 1.890625 -9.960938 1.859375 -10.898438 1.859375 -11.765625 C 1.859375 -12.628906 1.859375 -13.265625 1.859375 -13.671875 C 1.859375 -14.222656 1.859375 -15.003906 1.859375 -16.015625 C 1.859375 -17.035156 1.890625 -18.128906 1.953125 -19.296875 C 2.023438 -20.472656 2.15625 -21.660156 2.34375 -22.859375 C 2.53125 -24.066406 2.804688 -25.164062 3.171875 -26.15625 C 3.535156 -27.15625 4.007812 -27.960938 4.59375 -28.578125 C 5.175781 -29.203125 5.914062 -29.515625 6.8125 -29.515625 C 7.738281 -29.515625 8.441406 -29.050781 8.921875 -28.125 C 9.410156 -27.195312 9.773438 -26.113281 10.015625 -24.875 C 10.253906 -23.632812 10.390625 -22.40625 10.421875 -21.1875 C 10.453125 -19.96875 10.46875 -19.0625 10.46875 -18.46875 Z M 10.46875 -18.46875 "/></g></g></g><g fill="#000000" fill-opacity="1"><g transform="translate(179.65915, 66.777402)"><g><path d="M 16.671875 -28.390625 C 16.671875 -27.390625 16.332031 -26.644531 15.65625 -26.15625 C 14.988281 -25.675781 14.238281 -25.222656 13.40625 -24.796875 C 12.582031 -24.367188 11.835938 -23.859375 11.171875 -23.265625 C 10.503906 -22.679688 10.171875 -21.804688 10.171875 -20.640625 C 10.171875 -20.023438 10.316406 -19.492188 10.609375 -19.046875 C 10.898438 -18.597656 11.257812 -18.191406 11.6875 -17.828125 C 12.113281 -17.460938 12.582031 -17.09375 13.09375 -16.71875 C 13.613281 -16.34375 14.085938 -15.910156 14.515625 -15.421875 C 14.953125 -14.941406 15.316406 -14.359375 15.609375 -13.671875 C 15.898438 -12.984375 16.046875 -12.140625 16.046875 -11.140625 C 16.046875 -9.703125 15.675781 -8.285156 14.9375 -6.890625 C 14.195312 -5.492188 13.25 -4.253906 12.09375 -3.171875 C 10.945312 -2.085938 9.648438 -1.21875 8.203125 -0.5625 C 6.753906 0.0820312 5.328125 0.40625 3.921875 0.40625 C 3.335938 0.40625 2.753906 0.363281 2.171875 0.28125 C 1.585938 0.195312 1.0625 0.0351562 0.59375 -0.203125 C 0.125 -0.441406 -0.257812 -0.773438 -0.5625 -1.203125 C -0.875 -1.640625 -1.03125 -2.203125 -1.03125 -2.890625 C -1.03125 -3.847656 -0.835938 -4.59375 -0.453125 -5.125 C -0.078125 -5.664062 0.398438 -6.085938 0.984375 -6.390625 C 1.566406 -6.703125 2.191406 -6.941406 2.859375 -7.109375 C 3.535156 -7.285156 4.164062 -7.503906 4.75 -7.765625 C 5.332031 -8.023438 5.8125 -8.359375 6.1875 -8.765625 C 6.570312 -9.179688 6.765625 -9.769531 6.765625 -10.53125 C 6.765625 -11.25 6.476562 -11.992188 5.90625 -12.765625 C 5.34375 -13.546875 4.71875 -14.375 4.03125 -15.25 C 3.34375 -16.125 2.710938 -17.0625 2.140625 -18.0625 C 1.578125 -19.0625 1.296875 -20.160156 1.296875 -21.359375 C 1.296875 -22.835938 1.59375 -24.203125 2.1875 -25.453125 C 2.789062 -26.710938 3.597656 -27.804688 4.609375 -28.734375 C 5.628906 -29.671875 6.789062 -30.40625 8.09375 -30.9375 C 9.40625 -31.46875 10.785156 -31.734375 12.234375 -31.734375 C 12.785156 -31.734375 13.328125 -31.679688 13.859375 -31.578125 C 14.390625 -31.472656 14.859375 -31.289062 15.265625 -31.03125 C 15.679688 -30.78125 16.019531 -30.4375 16.28125 -30 C 16.539062 -29.570312 16.671875 -29.035156 16.671875 -28.390625 Z M 16.671875 -28.390625 "/></g></g></g><g fill="#000000" fill-opacity="1"><g transform="translate(196.845818, 66.777402)"><g><path d="M 25.1875 -15.375 C 25.1875 -13.863281 25.019531 -12.203125 24.6875 -10.390625 C 24.363281 -8.585938 23.8125 -6.910156 23.03125 -5.359375 C 22.257812 -3.816406 21.242188 -2.53125 19.984375 -1.5 C 18.734375 -0.46875 17.164062 0.046875 15.28125 0.046875 C 14.789062 0.046875 14.285156 0.015625 13.765625 -0.046875 C 13.253906 -0.117188 12.765625 -0.238281 12.296875 -0.40625 C 11.835938 -0.582031 11.414062 -0.816406 11.03125 -1.109375 C 10.65625 -1.398438 10.367188 -1.785156 10.171875 -2.265625 L 9.703125 5.15625 C 9.671875 5.945312 9.644531 6.894531 9.625 8 C 9.601562 9.101562 9.460938 10.148438 9.203125 11.140625 C 8.953125 12.140625 8.523438 12.992188 7.921875 13.703125 C 7.316406 14.410156 6.445312 14.765625 5.3125 14.765625 C 4.65625 14.765625 4.101562 14.425781 3.65625 13.75 C 3.21875 13.082031 2.867188 12.234375 2.609375 11.203125 C 2.347656 10.171875 2.148438 9.015625 2.015625 7.734375 C 1.878906 6.460938 1.789062 5.242188 1.75 4.078125 C 1.71875 2.910156 1.703125 1.84375 1.703125 0.875 C 1.703125 -0.0820312 1.703125 -0.785156 1.703125 -1.234375 C 1.703125 -3.546875 1.679688 -5.84375 1.640625 -8.125 C 1.609375 -10.414062 1.59375 -12.710938 1.59375 -15.015625 C 1.59375 -15.429688 1.59375 -16.078125 1.59375 -16.953125 C 1.59375 -17.828125 1.628906 -18.78125 1.703125 -19.8125 C 1.773438 -20.84375 1.882812 -21.910156 2.03125 -23.015625 C 2.1875 -24.117188 2.421875 -25.125 2.734375 -26.03125 C 3.046875 -26.945312 3.441406 -27.6875 3.921875 -28.25 C 4.398438 -28.820312 4.984375 -29.109375 5.671875 -29.109375 C 6.117188 -29.109375 6.523438 -28.976562 6.890625 -28.71875 C 7.253906 -28.457031 7.5625 -28.128906 7.8125 -27.734375 C 8.070312 -27.335938 8.285156 -26.914062 8.453125 -26.46875 C 8.628906 -26.019531 8.769531 -25.609375 8.875 -25.234375 C 9.9375 -26.441406 11.164062 -27.351562 12.5625 -27.96875 C 13.957031 -28.59375 15.445312 -28.90625 17.03125 -28.90625 C 18.675781 -28.90625 20.023438 -28.4375 21.078125 -27.5 C 22.128906 -26.570312 22.953125 -25.421875 23.546875 -24.046875 C 24.148438 -22.671875 24.570312 -21.195312 24.8125 -19.625 C 25.0625 -18.0625 25.1875 -16.644531 25.1875 -15.375 Z M 17.796875 -15.796875 C 17.796875 -16.304688 17.753906 -16.828125 17.671875 -17.359375 C 17.585938 -17.898438 17.429688 -18.398438 17.203125 -18.859375 C 16.984375 -19.328125 16.664062 -19.707031 16.25 -20 C 15.84375 -20.289062 15.328125 -20.4375 14.703125 -20.4375 C 13.878906 -20.4375 13.007812 -20.164062 12.09375 -19.625 C 11.1875 -19.09375 10.507812 -18.484375 10.0625 -17.796875 C 9.894531 -17.523438 9.789062 -17.078125 9.75 -16.453125 C 9.71875 -15.835938 9.703125 -15.375 9.703125 -15.0625 C 9.703125 -14.820312 9.707031 -14.503906 9.71875 -14.109375 C 9.738281 -13.710938 9.765625 -13.304688 9.796875 -12.890625 C 9.835938 -12.484375 9.882812 -12.085938 9.9375 -11.703125 C 9.988281 -11.328125 10.066406 -11.039062 10.171875 -10.84375 C 10.273438 -10.53125 10.5 -10.242188 10.84375 -9.984375 C 11.1875 -9.722656 11.5625 -9.488281 11.96875 -9.28125 C 12.382812 -9.082031 12.804688 -8.929688 13.234375 -8.828125 C 13.660156 -8.722656 14.03125 -8.671875 14.34375 -8.671875 C 15.070312 -8.671875 15.65625 -8.945312 16.09375 -9.5 C 16.539062 -10.050781 16.894531 -10.703125 17.15625 -11.453125 C 17.414062 -12.210938 17.585938 -12.992188 17.671875 -13.796875 C 17.753906 -14.609375 17.796875 -15.273438 17.796875 -15.796875 Z M 17.796875 -15.796875 "/></g></g></g><g fill="#000000" fill-opacity="1"><g transform="translate(223.632246, 66.777402)"><g><path d="M 23.171875 -9.1875 C 23.171875 -8.019531 22.800781 -6.875 22.0625 -5.75 C 21.320312 -4.632812 20.390625 -3.632812 19.265625 -2.75 C 18.148438 -1.875 16.957031 -1.171875 15.6875 -0.640625 C 14.414062 -0.109375 13.242188 0.15625 12.171875 0.15625 C 10.347656 0.15625 8.722656 -0.296875 7.296875 -1.203125 C 5.867188 -2.117188 4.671875 -3.28125 3.703125 -4.6875 C 2.742188 -6.101562 2.015625 -7.660156 1.515625 -9.359375 C 1.023438 -11.066406 0.78125 -12.726562 0.78125 -14.34375 C 0.78125 -16.0625 1.019531 -17.898438 1.5 -19.859375 C 1.976562 -21.828125 2.707031 -23.632812 3.6875 -25.28125 C 4.664062 -26.9375 5.90625 -28.3125 7.40625 -29.40625 C 8.90625 -30.507812 10.6875 -31.0625 12.75 -31.0625 C 13.914062 -31.0625 15.03125 -30.863281 16.09375 -30.46875 C 17.164062 -30.070312 18.097656 -29.515625 18.890625 -28.796875 C 19.679688 -28.078125 20.316406 -27.21875 20.796875 -26.21875 C 21.273438 -25.21875 21.515625 -24.097656 21.515625 -22.859375 C 21.515625 -21.242188 21.171875 -19.726562 20.484375 -18.3125 C 19.796875 -16.90625 18.882812 -15.6875 17.75 -14.65625 C 16.613281 -13.625 15.304688 -12.789062 13.828125 -12.15625 C 12.347656 -11.519531 10.832031 -11.164062 9.28125 -11.09375 C 9.425781 -10.09375 9.832031 -9.367188 10.5 -8.921875 C 11.175781 -8.472656 11.976562 -8.25 12.90625 -8.25 C 13.59375 -8.25 14.257812 -8.421875 14.90625 -8.765625 C 15.5625 -9.109375 16.195312 -9.492188 16.8125 -9.921875 C 17.4375 -10.359375 18.050781 -10.75 18.65625 -11.09375 C 19.257812 -11.4375 19.867188 -11.609375 20.484375 -11.609375 C 21.171875 -11.609375 21.789062 -11.382812 22.34375 -10.9375 C 22.894531 -10.488281 23.171875 -9.90625 23.171875 -9.1875 Z M 14.8125 -21.828125 C 14.8125 -22.273438 14.691406 -22.738281 14.453125 -23.21875 C 14.210938 -23.695312 13.832031 -23.9375 13.3125 -23.9375 C 12.550781 -23.9375 11.910156 -23.738281 11.390625 -23.34375 C 10.878906 -22.957031 10.453125 -22.460938 10.109375 -21.859375 C 9.765625 -21.253906 9.5 -20.609375 9.3125 -19.921875 C 9.125 -19.234375 9.015625 -18.597656 8.984375 -18.015625 C 9.460938 -18.117188 10.035156 -18.253906 10.703125 -18.421875 C 11.378906 -18.597656 12.015625 -18.832031 12.609375 -19.125 C 13.210938 -19.414062 13.726562 -19.785156 14.15625 -20.234375 C 14.59375 -20.679688 14.8125 -21.210938 14.8125 -21.828125 Z M 14.8125 -21.828125 "/></g></g></g><g fill="#000000" fill-opacity="1"><g transform="translate(247.321978, 66.777402)"><g><path d="M 19.453125 -19.296875 C 18.972656 -19.265625 18.5625 -19.304688 18.21875 -19.421875 C 17.875 -19.546875 17.53125 -19.675781 17.1875 -19.8125 C 16.875 -19.945312 16.5625 -20.078125 16.25 -20.203125 C 15.945312 -20.328125 15.601562 -20.367188 15.21875 -20.328125 C 14.53125 -20.296875 13.921875 -20.109375 13.390625 -19.765625 C 12.859375 -19.421875 12.375 -18.988281 11.9375 -18.46875 C 11.507812 -17.957031 11.140625 -17.382812 10.828125 -16.75 C 10.523438 -16.113281 10.285156 -15.484375 10.109375 -14.859375 C 10.003906 -14.453125 9.925781 -13.828125 9.875 -12.984375 C 9.832031 -12.140625 9.8125 -11.234375 9.8125 -10.265625 C 9.769531 -9.265625 9.75 -8.316406 9.75 -7.421875 C 9.75 -6.535156 9.71875 -5.832031 9.65625 -5.3125 C 9.613281 -4.757812 9.523438 -4.113281 9.390625 -3.375 C 9.253906 -2.632812 9.039062 -1.9375 8.75 -1.28125 C 8.457031 -0.632812 8.066406 -0.0859375 7.578125 0.359375 C 7.097656 0.804688 6.484375 1.03125 5.734375 1.03125 C 5.140625 1.03125 4.628906 0.859375 4.203125 0.515625 C 3.773438 0.171875 3.414062 -0.28125 3.125 -0.84375 C 2.832031 -1.414062 2.585938 -2.078125 2.390625 -2.828125 C 2.203125 -3.585938 2.0625 -4.363281 1.96875 -5.15625 C 1.863281 -5.988281 1.785156 -6.816406 1.734375 -7.640625 C 1.679688 -8.460938 1.644531 -9.242188 1.625 -9.984375 C 1.601562 -10.722656 1.601562 -11.398438 1.625 -12.015625 C 1.644531 -12.640625 1.65625 -13.140625 1.65625 -13.515625 C 1.613281 -14.722656 1.550781 -15.9375 1.46875 -17.15625 C 1.382812 -18.375 1.34375 -19.585938 1.34375 -20.796875 C 1.34375 -21.554688 1.375 -22.398438 1.4375 -23.328125 C 1.507812 -24.253906 1.703125 -25.117188 2.015625 -25.921875 C 2.328125 -26.734375 2.78125 -27.414062 3.375 -27.96875 C 3.976562 -28.519531 4.816406 -28.796875 5.890625 -28.796875 C 6.472656 -28.796875 6.96875 -28.601562 7.375 -28.21875 C 7.789062 -27.84375 8.125 -27.378906 8.375 -26.828125 C 8.632812 -26.285156 8.832031 -25.703125 8.96875 -25.078125 C 9.113281 -24.460938 9.203125 -23.894531 9.234375 -23.375 C 10.054688 -24.71875 10.984375 -25.8125 12.015625 -26.65625 C 13.054688 -27.5 14.398438 -27.953125 16.046875 -28.015625 C 16.867188 -28.054688 17.6875 -27.976562 18.5 -27.78125 C 19.3125 -27.59375 20.050781 -27.285156 20.71875 -26.859375 C 21.382812 -26.429688 21.929688 -25.875 22.359375 -25.1875 C 22.796875 -24.5 23.03125 -23.691406 23.0625 -22.765625 C 23.132812 -21.660156 22.804688 -20.816406 22.078125 -20.234375 C 21.359375 -19.648438 20.484375 -19.335938 19.453125 -19.296875 Z M 19.453125 -19.296875 "/></g></g></g><g fill="#000000" fill-opacity="1"><g transform="translate(269.618197, 66.777402)"><g><path d="M 23.171875 -9.1875 C 23.171875 -8.019531 22.800781 -6.875 22.0625 -5.75 C 21.320312 -4.632812 20.390625 -3.632812 19.265625 -2.75 C 18.148438 -1.875 16.957031 -1.171875 15.6875 -0.640625 C 14.414062 -0.109375 13.242188 0.15625 12.171875 0.15625 C 10.347656 0.15625 8.722656 -0.296875 7.296875 -1.203125 C 5.867188 -2.117188 4.671875 -3.28125 3.703125 -4.6875 C 2.742188 -6.101562 2.015625 -7.660156 1.515625 -9.359375 C 1.023438 -11.066406 0.78125 -12.726562 0.78125 -14.34375 C 0.78125 -16.0625 1.019531 -17.898438 1.5 -19.859375 C 1.976562 -21.828125 2.707031 -23.632812 3.6875 -25.28125 C 4.664062 -26.9375 5.90625 -28.3125 7.40625 -29.40625 C 8.90625 -30.507812 10.6875 -31.0625 12.75 -31.0625 C 13.914062 -31.0625 15.03125 -30.863281 16.09375 -30.46875 C 17.164062 -30.070312 18.097656 -29.515625 18.890625 -28.796875 C 19.679688 -28.078125 20.316406 -27.21875 20.796875 -26.21875 C 21.273438 -25.21875 21.515625 -24.097656 21.515625 -22.859375 C 21.515625 -21.242188 21.171875 -19.726562 20.484375 -18.3125 C 19.796875 -16.90625 18.882812 -15.6875 17.75 -14.65625 C 16.613281 -13.625 15.304688 -12.789062 13.828125 -12.15625 C 12.347656 -11.519531 10.832031 -11.164062 9.28125 -11.09375 C 9.425781 -10.09375 9.832031 -9.367188 10.5 -8.921875 C 11.175781 -8.472656 11.976562 -8.25 12.90625 -8.25 C 13.59375 -8.25 14.257812 -8.421875 14.90625 -8.765625 C 15.5625 -9.109375 16.195312 -9.492188 16.8125 -9.921875 C 17.4375 -10.359375 18.050781 -10.75 18.65625 -11.09375 C 19.257812 -11.4375 19.867188 -11.609375 20.484375 -11.609375 C 21.171875 -11.609375 21.789062 -11.382812 22.34375 -10.9375 C 22.894531 -10.488281 23.171875 -9.90625 23.171875 -9.1875 Z M 14.8125 -21.828125 C 14.8125 -22.273438 14.691406 -22.738281 14.453125 -23.21875 C 14.210938 -23.695312 13.832031 -23.9375 13.3125 -23.9375 C 12.550781 -23.9375 11.910156 -23.738281 11.390625 -23.34375 C 10.878906 -22.957031 10.453125 -22.460938 10.109375 -21.859375 C 9.765625 -21.253906 9.5 -20.609375 9.3125 -19.921875 C 9.125 -19.234375 9.015625 -18.597656 8.984375 -18.015625 C 9.460938 -18.117188 10.035156 -18.253906 10.703125 -18.421875 C 11.378906 -18.597656 12.015625 -18.832031 12.609375 -19.125 C 13.210938 -19.414062 13.726562 -19.785156 14.15625 -20.234375 C 14.59375 -20.679688 14.8125 -21.210938 14.8125 -21.828125 Z M 14.8125 -21.828125 "/></g></g></g><g fill="#000000" fill-opacity="1"><g transform="translate(293.307928, 66.777402)"><g><path d="M 19.453125 -19.296875 C 18.972656 -19.265625 18.5625 -19.304688 18.21875 -19.421875 C 17.875 -19.546875 17.53125 -19.675781 17.1875 -19.8125 C 16.875 -19.945312 16.5625 -20.078125 16.25 -20.203125 C 15.945312 -20.328125 15.601562 -20.367188 15.21875 -20.328125 C 14.53125 -20.296875 13.921875 -20.109375 13.390625 -19.765625 C 12.859375 -19.421875 12.375 -18.988281 11.9375 -18.46875 C 11.507812 -17.957031 11.140625 -17.382812 10.828125 -16.75 C 10.523438 -16.113281 10.285156 -15.484375 10.109375 -14.859375 C 10.003906 -14.453125 9.925781 -13.828125 9.875 -12.984375 C 9.832031 -12.140625 9.8125 -11.234375 9.8125 -10.265625 C 9.769531 -9.265625 9.75 -8.316406 9.75 -7.421875 C 9.75 -6.535156 9.71875 -5.832031 9.65625 -5.3125 C 9.613281 -4.757812 9.523438 -4.113281 9.390625 -3.375 C 9.253906 -2.632812 9.039062 -1.9375 8.75 -1.28125 C 8.457031 -0.632812 8.066406 -0.0859375 7.578125 0.359375 C 7.097656 0.804688 6.484375 1.03125 5.734375 1.03125 C 5.140625 1.03125 4.628906 0.859375 4.203125 0.515625 C 3.773438 0.171875 3.414062 -0.28125 3.125 -0.84375 C 2.832031 -1.414062 2.585938 -2.078125 2.390625 -2.828125 C 2.203125 -3.585938 2.0625 -4.363281 1.96875 -5.15625 C 1.863281 -5.988281 1.785156 -6.816406 1.734375 -7.640625 C 1.679688 -8.460938 1.644531 -9.242188 1.625 -9.984375 C 1.601562 -10.722656 1.601562 -11.398438 1.625 -12.015625 C 1.644531 -12.640625 1.65625 -13.140625 1.65625 -13.515625 C 1.613281 -14.722656 1.550781 -15.9375 1.46875 -17.15625 C 1.382812 -18.375 1.34375 -19.585938 1.34375 -20.796875 C 1.34375 -21.554688 1.375 -22.398438 1.4375 -23.328125 C 1.507812 -24.253906 1.703125 -25.117188 2.015625 -25.921875 C 2.328125 -26.734375 2.78125 -27.414062 3.375 -27.96875 C 3.976562 -28.519531 4.816406 -28.796875 5.890625 -28.796875 C 6.472656 -28.796875 6.96875 -28.601562 7.375 -28.21875 C 7.789062 -27.84375 8.125 -27.378906 8.375 -26.828125 C 8.632812 -26.285156 8.832031 -25.703125 8.96875 -25.078125 C 9.113281 -24.460938 9.203125 -23.894531 9.234375 -23.375 C 10.054688 -24.71875 10.984375 -25.8125 12.015625 -26.65625 C 13.054688 -27.5 14.398438 -27.953125 16.046875 -28.015625 C 16.867188 -28.054688 17.6875 -27.976562 18.5 -27.78125 C 19.3125 -27.59375 20.050781 -27.285156 20.71875 -26.859375 C 21.382812 -26.429688 21.929688 -25.875 22.359375 -25.1875 C 22.796875 -24.5 23.03125 -23.691406 23.0625 -22.765625 C 23.132812 -21.660156 22.804688 -20.816406 22.078125 -20.234375 C 21.359375 -19.648438 20.484375 -19.335938 19.453125 -19.296875 Z M 19.453125 -19.296875 "/></g></g></g></g></g></g></g></g></g></mask><clipPath id="cbb324e0a8"><path d="M 0.652344 0 L 329.796875 0 L 329.796875 99.5 L 0.652344 99.5 Z M 0.652344 0 " clip-rule="nonzero"/></clipPath><clipPath id="53593add71"><rect x="0" width="330" y="0" height="100"/></clipPath><clipPath id="76e32de65a"><rect x="0" width="330" y="0" height="100"/></clipPath><clipPath id="ab111dd456"><rect x="0" width="331" y="0" height="100"/></clipPath></defs><g clip-path="url(#47c15f7d58)"><path fill="#8c52ff" d="M 70.539062 73.207031 C 74.941406 81.1875 89.226562 96.070312 110.207031 68.878906 L 110.417969 69.027344 C 115.167969 60.484375 120.289062 50.332031 123.242188 43.253906 C 128.601562 30.402344 132.882812 14.84375 131.992188 8.375 C 131.097656 1.90625 121.601562 0.00390625 112.664062 7.867188 C 103.726562 15.730469 102.164062 24.230469 102.164062 24.230469 C 102.164062 24.230469 90.882812 65.199219 85.519531 75.472656 C 80.15625 85.746094 75.242188 79.277344 74.347656 78.261719 C 73.886719 77.742188 72.386719 75.800781 70.539062 73.207031 Z M 37.445312 79.867188 C 40.894531 90.367188 53.316406 75.410156 63.441406 88.492188 C 58.839844 82.957031 54.84375 83.019531 51.519531 85.027344 C 48.023438 87.140625 44 96.445312 39.605469 97.625 C 35.210938 98.8125 29.105469 99.234375 23.296875 89.171875 C 17.488281 79.109375 2.519531 52.21875 1.550781 46.890625 C 0.582031 41.5625 0.730469 36.914062 0.730469 36.914062 C 0.285156 30.824219 4.863281 21.816406 12.238281 27.90625 C 12.238281 27.90625 15.195312 30.570312 17.207031 35.074219 C 19.21875 39.578125 34.019531 73.019531 34.019531 73.019531 C 34.019531 73.019531 36.210938 77.402344 37.472656 79.851562 L 37.445312 79.867188 " fill-opacity="1" fill-rule="nonzero"/></g><path fill="#cb6ce6" d="M 55.425781 34.578125 C 49.769531 36.335938 46.109375 41.578125 47.242188 46.289062 C 48.378906 51 53.878906 53.398438 59.535156 51.640625 C 65.1875 49.886719 68.851562 44.644531 67.714844 39.933594 C 66.582031 35.222656 61.078125 32.824219 55.425781 34.578125 Z M 63.441406 88.492188 C 53.316406 75.410156 40.894531 90.367188 37.445312 79.867188 L 37.472656 79.851562 C 37.785156 80.460938 38.042969 80.953125 38.191406 81.222656 C 38.9375 82.574219 40.277344 84.351562 43.179688 80.121094 C 46.085938 75.894531 52.714844 63.972656 52.714844 63.972656 C 52.714844 63.972656 53.457031 62.703125 55.394531 61.351562 C 57.332031 59.996094 61.351562 58.730469 65.003906 64.820312 C 66.769531 67.765625 68.808594 70.773438 70.539062 73.207031 C 74.941406 81.1875 89.226562 96.070312 110.207031 68.878906 L 110.417969 69.027344 C 106.539062 76 102.90625 81.902344 100.898438 84.183594 C 96.429688 89.253906 91.441406 94.117188 83.621094 95.257812 C 75.800781 96.402344 69.097656 95.894531 64.183594 89.425781 C 63.933594 89.097656 63.6875 88.789062 63.441406 88.492188 " fill-opacity="1" fill-rule="nonzero"/><g clip-path="url(#f84c7933e7)"><g transform="matrix(1, 0, 0, 1, 30, -0.000000000000003885)"><g clip-path="url(#ab111dd456)"><g clip-path="url(#b2c5b1e84a)"><g transform="matrix(1, 0, 0, 1, 1, -0.000000000000003885)"><g clip-path="url(#76e32de65a)"><g clip-path="url(#2742f55ceb)"><g mask="url(#ffb1c8e15f)"><g transform="matrix(1, 0, 0, 1, -0.000000000000003553, -0.000000000000003885)"><g clip-path="url(#53593add71)"><g clip-path="url(#cbb324e0a8)"><path fill="url(#756c68fdd0)" d="M 0.652344 0 L 0.652344 99.5 L 329.796875 99.5 L 329.796875 0 Z M 0.652344 0 " fill-rule="nonzero"/></g></g></g></g></g></g></g></g></g></g></g></svg>