<svg xmlns="http://www.w3.org/2000/svg" xmlns:xlink="http://www.w3.org/1999/xlink" width="500" zoomAndPan="magnify" viewBox="0 0 375 374.999991" height="500" preserveAspectRatio="xMidYMid meet" version="1.0"><path fill="#8c52ff" d="M 198.6875 230.742188 C 211.109375 253.289062 251.46875 295.324219 310.734375 218.511719 L 311.332031 218.933594 C 324.746094 194.804688 339.214844 166.128906 347.550781 146.132812 C 362.699219 109.824219 374.796875 65.871094 372.273438 47.597656 C 369.75 29.328125 342.925781 23.953125 317.679688 46.164062 C 292.433594 68.378906 288.015625 92.386719 288.015625 92.386719 C 288.015625 92.386719 256.144531 208.121094 240.996094 237.140625 C 225.851562 266.164062 211.964844 247.894531 209.441406 245.027344 C 208.140625 243.550781 203.898438 238.066406 198.6875 230.742188 Z M 105.195312 249.558594 C 114.941406 279.21875 150.027344 236.960938 178.628906 273.925781 C 165.632812 258.28125 154.347656 258.460938 144.957031 264.136719 C 135.074219 270.105469 123.714844 296.386719 111.300781 299.722656 C 98.886719 303.070312 81.636719 304.265625 65.230469 275.839844 C 48.820312 247.410156 6.53125 171.449219 3.800781 156.402344 C 1.0625 141.351562 1.484375 128.21875 1.484375 128.21875 C 0.222656 111.019531 13.160156 85.578125 33.988281 102.777344 C 33.988281 102.777344 42.347656 110.300781 48.03125 123.019531 C 53.710938 135.742188 95.523438 230.214844 95.523438 230.214844 C 95.523438 230.214844 101.714844 242.59375 105.273438 249.511719 L 105.195312 249.558594 " fill-opacity="1" fill-rule="nonzero"/><path fill="#cb6ce6" d="M 155.984375 121.625 C 140.015625 126.585938 129.667969 141.390625 132.871094 154.703125 C 136.078125 168.011719 151.625 174.78125 167.59375 169.824219 C 183.566406 164.863281 193.910156 150.054688 190.707031 136.746094 C 187.5 123.4375 171.957031 116.667969 155.984375 121.625 Z M 178.628906 273.925781 C 150.027344 236.960938 114.941406 279.21875 105.195312 249.558594 L 105.273438 249.511719 C 106.15625 251.238281 106.882812 252.621094 107.304688 253.386719 C 109.40625 257.207031 113.195312 262.222656 121.398438 250.277344 C 129.605469 238.339844 148.328125 204.65625 148.328125 204.65625 C 148.328125 204.65625 150.429688 201.074219 155.902344 197.246094 C 161.367188 193.429688 172.726562 189.84375 183.039062 207.046875 C 188.03125 215.371094 193.789062 223.871094 198.6875 230.742188 C 211.109375 253.289062 251.46875 295.324219 310.734375 218.511719 L 311.332031 218.933594 C 300.375 238.632812 290.113281 255.300781 284.4375 261.746094 C 271.816406 276.078125 257.722656 289.8125 235.632812 293.035156 C 213.542969 296.261719 194.609375 294.828125 180.726562 276.554688 C 180.023438 275.628906 179.328125 274.757812 178.628906 273.925781 " fill-opacity="1" fill-rule="nonzero"/></svg>